<?xml version="1.0" encoding="iso-8859-1"?>
<!-- Generator: Adobe Illustrator 19.0.0, SVG Export Plug-In . SVG Version: 6.00 Build 0)  -->
<svg version="1.1" id="Capa_1" xmlns="http://www.w3.org/2000/svg" xmlns:xlink="http://www.w3.org/1999/xlink" x="0px" y="0px"
	 viewBox="0 0 512 512" style="enable-background:new 0 0 512 512;" xml:space="preserve">
<path style="fill:#D2D2D2;" d="M111.106,180.632V59.611c0-27.231,22.154-49.386,49.386-49.386H351.51
	c27.231,0,49.386,22.154,49.386,49.386v121.021h-31.962V59.611c0-9.607-7.817-17.423-17.424-17.423H160.491
	c-9.607,0-17.423,7.816-17.423,17.423v121.021H111.106z"/>
<path style="fill:#FD6F71;" d="M306.249,0H205.752c-7.628,0-13.812,6.184-13.812,13.812v24.789c0,7.628,6.184,13.812,13.812,13.812
	h100.496c7.628,0,13.813-6.184,13.813-13.812V13.812C320.06,6.184,313.877,0,306.249,0z"/>
<polygon style="fill:#EFEDEE;" points="98.723,180.632 98.723,470.124 256,491.063 413.278,470.124 413.278,180.632 "/>
<g>
	<polygon style="fill:#B8B8B8;" points="129.628,470.125 129.628,180.632 98.723,180.632 98.723,470.125 256,491.063 
		271.453,489.005 	"/>
	<rect x="111.106" y="125.28" style="fill:#B8B8B8;" width="31.967" height="55.352"/>
	<rect x="368.929" y="125.28" style="fill:#B8B8B8;" width="31.967" height="55.352"/>
</g>
<path style="fill:#FD6F71;" d="M406.014,156.186H105.987c-12.498,0-22.63,10.132-22.63,22.63v139.728
	c0,15.068,12.215,27.283,27.283,27.283l0,0c15.068,0,27.283-12.215,27.283-27.283v-85.316c0-11.692,9.478-21.169,21.17-21.169
	c11.693,0,21.17,9.478,21.17,21.169v48.028c0,15.068,12.215,27.283,27.283,27.283l0,0c15.068,0,27.283-12.215,27.283-27.283v-22.458
	c0-11.692,9.478-21.169,21.169-21.169l0,0c11.692,0,21.169,9.478,21.169,21.169v49.093c0,15.068,12.215,27.283,27.283,27.283
	s27.283-12.215,27.283-27.283v-85.318c0-11.692,9.478-21.169,21.169-21.169l0,0c11.692,0,21.169,9.478,21.169,21.169v64.009
	c0,15.068,12.215,27.283,27.283,27.283l0,0c15.068,0,27.283-12.215,27.283-27.283V178.816
	C428.644,166.318,418.513,156.186,406.014,156.186z"/>
<path style="fill:#E34B4C;" d="M114.262,318.543V178.816c0-12.498,10.132-22.63,22.63-22.63h-30.905
	c-12.498,0-22.63,10.132-22.63,22.63v139.728c0,15.068,12.215,27.283,27.283,27.283l0,0c5.738,0,11.059-1.775,15.453-4.801
	C118.948,336.107,114.262,327.875,114.262,318.543z"/>
<g>
	<path style="fill:#3A484A;" d="M164.351,398.063c-4.267,0-7.726-3.459-7.726-7.726V373.75c0-4.267,3.459-7.726,7.726-7.726
		s7.726,3.459,7.726,7.726v16.587C172.078,394.604,168.618,398.063,164.351,398.063z"/>
	<path style="fill:#3A484A;" d="M347.65,398.063c-4.267,0-7.726-3.459-7.726-7.726V373.75c0-4.267,3.459-7.726,7.726-7.726
		c4.267,0,7.726,3.459,7.726,7.726v16.587C355.376,394.604,351.918,398.063,347.65,398.063z"/>
	<path style="fill:#3A484A;" d="M256,406.916c-11.046,0-21.411-4.61-28.438-12.65c-2.808-3.213-2.481-8.094,0.732-10.902
		s8.093-2.481,10.902,0.732c4.092,4.681,10.216,7.367,16.803,7.367c6.587,0,12.71-2.685,16.803-7.367
		c2.808-3.213,7.689-3.541,10.902-0.732c3.213,2.808,3.541,7.689,0.732,10.902C277.411,402.306,267.046,406.916,256,406.916z"/>
</g>
<path style="fill:#B8B8B8;" d="M413.971,470.125H98.03c-11.182,0-20.245,9.064-20.245,20.245v1.385
	C77.785,502.936,86.85,512,98.03,512H413.97c11.182,0,20.245-9.065,20.245-20.245v-1.385
	C434.216,479.189,425.151,470.125,413.971,470.125z"/>
<path style="fill:#9E9E9E;" d="M108.691,491.755v-1.385c0-11.182,9.065-20.245,20.245-20.245H98.03
	c-11.182,0-20.245,9.064-20.245,20.245v1.385C77.785,502.936,86.85,512,98.03,512h30.905
	C117.755,512,108.691,502.935,108.691,491.755z"/>
<g>
</g>
<g>
</g>
<g>
</g>
<g>
</g>
<g>
</g>
<g>
</g>
<g>
</g>
<g>
</g>
<g>
</g>
<g>
</g>
<g>
</g>
<g>
</g>
<g>
</g>
<g>
</g>
<g>
</g>
</svg>
