<?xml version="1.0" encoding="iso-8859-1"?>
<!-- Generator: Adobe Illustrator 19.0.0, SVG Export Plug-In . SVG Version: 6.00 Build 0)  -->
<svg version="1.1" id="Capa_1" xmlns="http://www.w3.org/2000/svg" xmlns:xlink="http://www.w3.org/1999/xlink" x="0px" y="0px"
	 viewBox="0 0 512 512" style="enable-background:new 0 0 512 512;" xml:space="preserve">
<path style="fill:#506366;" d="M80.277,462.842v31.902c0,9.53,7.726,17.257,17.257,17.257h29.621c9.53,0,17.257-7.726,17.257-17.257
	v-31.902H80.277z"/>
<path style="fill:#3A484A;" d="M111.182,494.744v-31.902H80.277v31.902c0,9.53,7.726,17.256,17.257,17.256h29.621
	c0.216,0,0.428-0.024,0.642-0.032C118.566,511.627,111.182,504.057,111.182,494.744z"/>
<path style="fill:#506366;" d="M431.724,462.842v31.902c0,9.53-7.726,17.257-17.257,17.257h-29.621
	c-9.53,0-17.257-7.726-17.257-17.257v-31.902H431.724z"/>
<path style="fill:#3A484A;" d="M398.496,494.744v-31.902H367.59v31.902c0,9.53,7.726,17.256,17.257,17.256h29.621
	c0.216,0,0.428-0.024,0.642-0.032C405.879,511.627,398.496,504.057,398.496,494.744z"/>
<path style="fill:#D2D2D2;" d="M405.469,0H106.531c-14.5,0-26.254,11.754-26.254,26.255v104.628h351.447V26.255
	C431.724,11.754,419.969,0,405.469,0z"/>
<path style="fill:#B8B8B8;" d="M137.436,0h-30.905c-14.5,0-26.254,11.754-26.254,26.254v104.628h30.905V26.254
	C111.182,11.754,122.937,0,137.436,0z"/>
<g>
	<path style="fill:#506366;" d="M182.262,62.532H131.46c-8.735,0-15.816,7.081-15.816,15.816V99.79l41.218,15.6l41.218-15.6V78.348
		C198.078,69.613,190.997,62.532,182.262,62.532z"/>
	<path style="fill:#506366;" d="M329.738,62.532h50.801c8.735,0,15.816,7.081,15.816,15.816V99.79l-41.216,15.6l-41.218-15.6V78.348
		C313.922,69.613,321.003,62.532,329.738,62.532z"/>
</g>
<path style="fill:#FD6F71;" d="M431.724,99.79H80.277c-17.109,0-30.979,13.869-30.979,30.979v316.285
	c0,17.109,13.869,30.979,30.979,30.979h351.447c17.109,0,30.979-13.869,30.979-30.979V130.768
	C462.703,113.659,448.832,99.79,431.724,99.79z"/>
<path style="fill:#E34B4C;" d="M80.203,447.054V130.769c0-17.109,13.869-30.979,30.979-30.979H80.276
	c-17.109,0-30.979,13.869-30.979,30.979v316.285c0,17.109,13.869,30.979,30.979,30.979h30.905
	C94.073,478.033,80.203,464.162,80.203,447.054z"/>
<g>
	<circle style="fill:#506366;" cx="124.776" cy="158.061" r="23.32"/>
	<circle style="fill:#506366;" cx="212.259" cy="158.061" r="23.32"/>
	<circle style="fill:#506366;" cx="299.742" cy="158.061" r="23.32"/>
	<circle style="fill:#506366;" cx="387.214" cy="158.061" r="23.32"/>
	<path style="fill:#506366;" d="M256,225.688L86.796,243.563v168.22c0,12.608,10.221,22.83,22.83,22.83h292.748
		c12.608,0,22.83-10.221,22.83-22.83v-168.22L256,225.688z"/>
</g>
<path style="fill:#3A484A;" d="M117.702,411.783v-168.22l153.75-16.242L256,225.689L86.797,243.563v168.22
	c0,12.608,10.221,22.83,22.83,22.83h30.905C127.923,434.613,117.702,424.391,117.702,411.783z"/>
<path style="fill:#D2D2D2;" d="M425.204,207.814H86.796c-7.104,0-12.864,5.76-12.864,12.864V230.7
	c0,7.104,5.76,12.864,12.864,12.864h338.407c7.104,0,12.864-5.76,12.864-12.864v-10.022
	C438.068,213.573,432.308,207.814,425.204,207.814z"/>
<path style="fill:#B8B8B8;" d="M104.838,230.699v-10.022c0-7.104,5.76-12.864,12.864-12.864H86.797
	c-7.104,0-12.864,5.759-12.864,12.864v10.022c0,7.104,5.76,12.864,12.864,12.864h30.905
	C110.597,243.563,104.838,237.804,104.838,230.699z"/>
<g>
	<path style="fill:#3A484A;" d="M160.35,343.575c-4.267,0-7.726-3.459-7.726-7.726v-17.311c0-4.267,3.459-7.726,7.726-7.726
		c4.267,0,7.726,3.459,7.726,7.726v17.311C168.076,340.115,164.617,343.575,160.35,343.575z"/>
	<path style="fill:#3A484A;" d="M351.65,343.575c-4.267,0-7.726-3.459-7.726-7.726v-17.311c0-4.267,3.459-7.726,7.726-7.726
		s7.726,3.459,7.726,7.726v17.311C359.377,340.115,355.917,343.575,351.65,343.575z"/>
	<path style="fill:#3A484A;" d="M256,352.814c-11.431,0-22.156-4.77-29.425-13.086c-2.808-3.213-2.481-8.094,0.732-10.902
		s8.093-2.481,10.902,0.732c4.335,4.959,10.819,7.804,17.791,7.804c6.972,0,13.456-2.844,17.79-7.804
		c2.808-3.213,7.689-3.541,10.902-0.732c3.213,2.808,3.541,7.689,0.732,10.902C278.156,348.045,267.431,352.814,256,352.814z"/>
</g>
<g>
</g>
<g>
</g>
<g>
</g>
<g>
</g>
<g>
</g>
<g>
</g>
<g>
</g>
<g>
</g>
<g>
</g>
<g>
</g>
<g>
</g>
<g>
</g>
<g>
</g>
<g>
</g>
<g>
</g>
</svg>
