<?xml version="1.0" encoding="iso-8859-1"?>
<!-- Generator: Adobe Illustrator 19.0.0, SVG Export Plug-In . SVG Version: 6.00 Build 0)  -->
<svg version="1.1" id="Capa_1" xmlns="http://www.w3.org/2000/svg" xmlns:xlink="http://www.w3.org/1999/xlink" x="0px" y="0px"
	 viewBox="0 0 511.999 511.999" style="enable-background:new 0 0 511.999 511.999;" xml:space="preserve">
<path style="fill:#85E7FF;" d="M476.961,98.011L256,74.289L35.038,98.011C-40.127,237.975,21.857,354.515,70.132,415.52
	c22.939,28.988,57.855,45.912,94.821,45.912h182.094c36.967,0,71.882-16.924,94.821-45.912
	C490.142,354.515,552.126,237.975,476.961,98.011z"/>
<path style="fill:#57D0E6;" d="M20.463,128.917h471.072c-4.142-10.164-8.969-20.468-14.574-30.905L256,74.289L35.038,98.011
	C29.433,108.449,24.607,118.753,20.463,128.917z"/>
<path style="fill:#85E7FF;" d="M476.961,50.567H35.038c-13.101,0-23.722,10.62-23.722,23.722l0,0
	c0,13.101,10.62,23.722,23.722,23.722h441.924c13.101,0,23.722-10.62,23.722-23.722l0,0
	C500.683,61.188,490.063,50.567,476.961,50.567z"/>
<path style="fill:#57D0E6;" d="M468.204,194.75c-1.807-10.816-11.1-18.782-22.065-18.782H65.861
	c-10.966,0-20.26,7.966-22.065,18.782c-4.608,27.584-3.853,55.227,2.296,82.724c10.81,48.331,36.429,87.986,56.018,112.741
	c15.307,19.343,38.213,30.437,62.842,30.437h182.094c24.631,0,47.536-11.094,62.842-30.437
	c19.589-24.755,45.21-64.41,56.018-112.741C472.056,249.977,472.812,222.334,468.204,194.75z"/>
<path style="fill:#4DB8CC;" d="M143.317,390.214c-19.588-24.755-45.208-64.41-56.018-112.741
	c-6.15-27.497-6.904-55.138-2.296-82.724c1.807-10.816,11.1-18.782,22.065-18.782H65.861c-10.966,0-20.26,7.966-22.065,18.782
	c-4.608,27.584-3.853,55.227,2.296,82.724c10.81,48.331,36.429,87.986,56.018,112.741c15.307,19.343,38.213,30.437,62.842,30.437
	h41.207C181.53,420.651,158.625,409.557,143.317,390.214z"/>
<path style="fill:#F2C42C;" d="M160.304,333.911c-38.88,31.006-64.028,22.008-57.232,0c6.797-22.008-12.234-11.473-12.234-31.524
	s19.031-9.516,12.234-31.524c-6.797-22.008,18.352-31.006,57.232,0V333.911z"/>
<path style="fill:#E0B629;" d="M173.419,294.661h-6.747c0.067-0.099,0.143-0.189,0.207-0.292c2.241-3.631,1.113-8.392-2.52-10.631
	c-0.739-0.455-18.277-11.19-34.219-13.785c-4.207-0.689-8.182,2.172-8.867,6.384c-0.686,4.211,2.173,8.182,6.384,8.867
	c8.962,1.459,19.205,6.491,24.67,9.456H127.2c-4.267,0-7.726,3.459-7.726,7.726s3.459,7.726,7.726,7.726h25.148
	c-6.053,3.278-16.226,8.078-24.69,9.456c-4.211,0.686-7.07,4.655-6.384,8.867c0.617,3.791,3.896,6.486,7.616,6.486
	c0.412,0,0.83-0.033,1.251-0.102c15.941-2.595,33.48-13.328,34.218-13.784c3.631-2.241,4.76-7,2.521-10.633
	c-0.063-0.102-0.134-0.194-0.201-0.292h6.739c4.267,0,7.726-3.459,7.726-7.726S177.686,294.661,173.419,294.661z"/>
<ellipse style="fill:#FADC60;" cx="264.159" cy="302.389" rx="111.126" ry="88.441"/>
<g>
	<path style="fill:#3A484A;" d="M248.399,280.169c-4.267,0-7.726,3.459-7.726,7.726v8.916c0,4.267,3.459,7.726,7.726,7.726
		c4.267,0,7.726-3.459,7.726-7.726v-8.916C256.125,283.628,252.666,280.169,248.399,280.169z"/>
	<path style="fill:#3A484A;" d="M346.93,280.169c-4.267,0-7.726,3.459-7.726,7.726v8.916c0,4.267,3.459,7.726,7.726,7.726
		c4.267,0,7.726-3.459,7.726-7.726v-8.916C354.656,283.628,351.197,280.169,346.93,280.169z"/>
	<path style="fill:#3A484A;" d="M314.909,290.374c-3.212-2.809-8.094-2.482-10.902,0.731c-1.522,1.74-3.833,2.738-6.343,2.738
		s-4.821-0.998-6.342-2.738c-2.809-3.213-7.69-3.541-10.902-0.732c-3.213,2.808-3.542,7.689-0.732,10.902
		c4.456,5.098,11.009,8.022,17.977,8.022c6.968,0,13.521-2.924,17.977-8.021C318.449,298.063,318.122,293.182,314.909,290.374z"/>
</g>
<path style="fill:#F2C42C;" d="M218.114,295.22c-4.549-5.675-12.163-9.399-20.805-9.399s-16.255,3.724-20.805,9.399
	c-3.35,4.179-3.35,10.157,0,14.336c4.549,5.675,12.163,9.399,20.805,9.399s16.255-3.724,20.805-9.399
	C221.464,305.376,221.464,299.399,218.114,295.22z"/>
<g>
	<circle style="fill:#EFEDEE;" cx="417.759" cy="265.003" r="18.352"/>
	<circle style="fill:#EFEDEE;" cx="385.39" cy="217.337" r="13.933"/>
</g>
<g>
</g>
<g>
</g>
<g>
</g>
<g>
</g>
<g>
</g>
<g>
</g>
<g>
</g>
<g>
</g>
<g>
</g>
<g>
</g>
<g>
</g>
<g>
</g>
<g>
</g>
<g>
</g>
<g>
</g>
</svg>
