<?xml version="1.0" encoding="iso-8859-1"?>
<!-- Generator: Adobe Illustrator 19.0.0, SVG Export Plug-In . SVG Version: 6.00 Build 0)  -->
<svg version="1.1" id="Capa_1" xmlns="http://www.w3.org/2000/svg" xmlns:xlink="http://www.w3.org/1999/xlink" x="0px" y="0px"
	 viewBox="0 0 512 512" style="enable-background:new 0 0 512 512;" xml:space="preserve">
<path style="fill:#506366;" d="M117.906,347.024c-4.267,0-7.726-3.459-7.726-7.726V231.401c0-4.267,3.459-7.726,7.726-7.726
	s7.726,3.459,7.726,7.726v107.896C125.633,343.564,122.173,347.024,117.906,347.024z"/>
<rect x="238.693" y="213.763" style="fill:#B8B8B8;" width="34.609" height="93.52"/>
<path style="fill:#FD6F71;" d="M274.571,9.783C274.022,4.231,269.352,0,263.774,0h-15.548c-5.578,0-10.248,4.231-10.797,9.783
	l-4.123,40.709h45.387L274.571,9.783z"/>
<polygon style="fill:#D2D2D2;" points="292.98,25.783 219.02,25.783 154.547,253.12 357.453,253.12 "/>
<path style="fill:#3A484A;" d="M125.633,284.025v-52.624c0-4.267-3.459-7.726-7.726-7.726s-7.726,3.459-7.726,7.726v52.624H125.633z
	"/>
<g>
	<path style="fill:#EFEDEE;" d="M219.02,25.783c0,0-1.364,173.042-64.473,227.336H69.451c-7.716,0-13.975-6.26-13.975-13.975
		c0-5.629,3.37-10.718,8.571-12.876c66.601-27.605,91.875-122.757,100.598-171.383c3.024-16.836,17.65-29.102,34.751-29.102
		C199.396,25.783,219.02,25.783,219.02,25.783z"/>
	<path style="fill:#EFEDEE;" d="M456.525,239.144c0,7.716-6.26,13.975-13.975,13.975h-85.096
		C294.344,198.825,292.98,25.783,292.98,25.783h19.625c17.101,0,31.728,12.265,34.751,29.102
		c8.724,48.625,33.998,143.777,100.598,171.383C453.156,228.425,456.525,233.514,456.525,239.144z"/>
</g>
<g>
	<path style="fill:#3A484A;" d="M164.536,182.741c-4.267,0-7.726-3.459-7.726-7.726v-16.553c0-4.267,3.459-7.726,7.726-7.726
		c4.267,0,7.726,3.459,7.726,7.726v16.553C172.263,179.281,168.803,182.741,164.536,182.741z"/>
	<path style="fill:#3A484A;" d="M347.464,182.741c-4.267,0-7.726-3.459-7.726-7.726v-16.553c0-4.267,3.459-7.726,7.726-7.726
		c4.267,0,7.726,3.459,7.726,7.726v16.553C355.19,179.281,351.731,182.741,347.464,182.741z"/>
	<path style="fill:#3A484A;" d="M256,191.577c-11.027,0-21.376-4.603-28.392-12.629c-2.808-3.212-2.481-8.093,0.731-10.902
		c3.212-2.808,8.093-2.481,10.902,0.731c4.082,4.669,10.19,7.346,16.758,7.346c6.568,0,12.676-2.677,16.757-7.346
		c2.808-3.213,7.689-3.541,10.902-0.732c3.213,2.808,3.541,7.689,0.732,10.902C277.376,186.974,267.027,191.577,256,191.577z"/>
</g>
<path style="fill:#EFEDEE;" d="M338.358,458.398L256,438.372l-82.358,20.026C167.627,485.972,188.839,512,217.065,512h77.868
	C323.161,512,344.373,485.972,338.358,458.398z"/>
<path style="fill:#D2D2D2;" d="M204.548,458.398l66.905-16.268L256,438.373l-82.358,20.026C167.627,485.972,188.839,512,217.065,512
	h30.905C219.745,512,198.532,485.972,204.548,458.398z"/>
<g>
	<path style="fill:#FD6F71;" d="M122.534,319.621h-9.255c-8.126,0-14.714,6.588-14.714,14.714v52.492
		c0,8.126,6.588,14.714,14.714,14.714h9.255c8.126,0,14.714-6.588,14.714-14.714v-52.492
		C137.248,326.209,130.66,319.621,122.534,319.621z"/>
	<path style="fill:#FD6F71;" d="M203.405,366.106c8.082-30.17,1.781-54.487-4.052-68.453c-2.586-6.169,1.893-12.978,8.58-12.978
		h96.129c6.688,0,11.166,6.809,8.58,12.978c-5.833,13.965-12.134,38.283-4.052,68.453c8.886,33.214,22.292,58.051,29.763,92.292
		H173.639C181.114,424.155,194.52,399.319,203.405,366.106z"/>
</g>
<path style="fill:#E34B4C;" d="M230.26,297.652c-2.586-6.169,1.893-12.978,8.58-12.978h-30.905c-6.688,0-11.166,6.809-8.58,12.978
	c5.833,13.966,12.133,38.284,4.052,68.453c-8.886,33.214-22.292,58.051-29.763,92.292h30.905
	c7.471-34.242,20.877-59.079,29.763-92.292C242.393,335.935,236.093,311.617,230.26,297.652z"/>
<g>
</g>
<g>
</g>
<g>
</g>
<g>
</g>
<g>
</g>
<g>
</g>
<g>
</g>
<g>
</g>
<g>
</g>
<g>
</g>
<g>
</g>
<g>
</g>
<g>
</g>
<g>
</g>
<g>
</g>
</svg>
