<?xml version="1.0" encoding="iso-8859-1"?>
<!-- Generator: Adobe Illustrator 19.0.0, SVG Export Plug-In . SVG Version: 6.00 Build 0)  -->
<svg version="1.1" id="Capa_1" xmlns="http://www.w3.org/2000/svg" xmlns:xlink="http://www.w3.org/1999/xlink" x="0px" y="0px"
	 viewBox="0 0 512 512" style="enable-background:new 0 0 512 512;" xml:space="preserve">
<path style="fill:#CCCCCC;" d="M441.352,116.302H290.028c-18.793,0-34.028,15.234-34.028,34.028l-51.2,32.43v78.665l51.2,46.792
	h219.38V150.33C475.38,131.537,460.146,116.302,441.352,116.302z"/>
<path style="fill:#AAAAAA;" d="M286.905,150.33c0-11.631-3.09-22.548-8.467-32.001C265.352,123.071,256,135.607,256,150.33
	l-51.2,32.43v78.665l51.2,46.792h30.905V150.33z"/>
<path style="fill:#CCCCCC;" d="M221.972,116.302H70.648c-18.793,0-34.028,15.234-34.028,34.028v157.888H256V150.33
	C256,131.537,240.766,116.302,221.972,116.302z"/>
<path style="fill:#AAAAAA;" d="M101.553,116.302H70.648c-18.793,0-34.028,15.235-34.028,34.028v157.888h30.905V150.33
	C67.525,131.537,82.761,116.302,101.553,116.302z"/>
<g>
	<path style="fill:#AD4F3D;" d="M82.41,324.493l-20.699,18.31l-12.341,33.19c-3.549,9.547,3.511,19.704,13.696,19.704h12.43
		c4.578,0,8.891-2.146,11.653-5.797l35.626-47.098L82.41,324.493z"/>
	<path style="fill:#AD4F3D;" d="M429.59,324.493l20.699,18.309l12.341,33.19c3.549,9.547-3.511,19.704-13.696,19.704h-12.43
		c-4.578,0-8.892-2.146-11.653-5.797l-35.627-47.097L429.59,324.493z"/>
</g>
<path style="fill:#FD6F71;" d="M213.677,221.415H77.309l-26.448,17.632v69.171h193.95l11.19-25.766v-18.714
	C256,240.364,237.051,221.415,213.677,221.415z"/>
<path style="fill:#E34B4C;" d="M298.323,221.415h136.368l26.448,17.632v69.171H267.19L256,282.452v-18.714
	C256,240.364,274.949,221.415,298.323,221.415z"/>
<path style="fill:#C86D5C;" d="M493.586,197.002h-40.48c-10.17,0-18.414,8.245-18.414,18.414v67.036H77.309v-67.036
	c0-10.17-8.245-18.414-18.414-18.414h-40.48C8.245,197.002,0,205.246,0,215.416v80.674c0,25.799,20.914,46.713,46.713,46.713
	h418.575c25.799,0,46.713-20.914,46.713-46.713v-80.674C512,205.246,503.755,197.002,493.586,197.002z"/>
<g>
</g>
<g>
</g>
<g>
</g>
<g>
</g>
<g>
</g>
<g>
</g>
<g>
</g>
<g>
</g>
<g>
</g>
<g>
</g>
<g>
</g>
<g>
</g>
<g>
</g>
<g>
</g>
<g>
</g>
</svg>
