<?xml version="1.0" encoding="iso-8859-1"?>
<!-- Generator: Adobe Illustrator 19.0.0, SVG Export Plug-In . SVG Version: 6.00 Build 0)  -->
<svg version="1.1" id="Capa_1" xmlns="http://www.w3.org/2000/svg" xmlns:xlink="http://www.w3.org/1999/xlink" x="0px" y="0px"
	 viewBox="0 0 512 512" style="enable-background:new 0 0 512 512;" xml:space="preserve">
<g>
	<path style="fill:#7CB777;" d="M61.461,61.621c-10.639-3.836-21.974,3.719-22.525,15.015
		c-2.706,55.462,15.074,119.213,53.737,177.214c43.707,65.566,104.462,109.324,163.326,124.005
		c9.092-59.981-7.927-132.894-51.634-198.46C165.702,121.393,113.696,80.457,61.461,61.621z"/>
	<path style="fill:#7CB777;" d="M450.539,61.621c10.639-3.836,21.974,3.719,22.525,15.015
		c2.706,55.462-15.074,119.213-53.737,177.214C375.619,319.415,314.864,363.172,256,377.854
		c-9.092-59.981,7.927-132.894,51.634-198.46C346.299,121.393,398.304,80.457,450.539,61.621z"/>
</g>
<g>
	<path style="fill:#34925D;" d="M161.442,18.817c-9.071-6.755-22.109-2.807-25.909,7.844
		c-18.661,52.298-20.117,118.466,0.081,185.182C158.447,287.26,203.916,346.746,256,377.854
		c26.082-54.774,30.922-129.49,8.088-204.908C243.889,106.229,205.977,51.982,161.442,18.817z"/>
	<path style="fill:#34925D;" d="M350.559,18.817c9.071-6.755,22.109-2.807,25.909,7.844c18.661,52.298,20.117,118.466-0.081,185.182
		c-22.833,75.417-68.302,134.903-120.386,166.012c-26.082-54.774-30.922-129.49-8.088-204.908
		C268.111,106.229,306.024,51.982,350.559,18.817z"/>
</g>
<path style="fill:#7CB777;" d="M269.536,6.82c-6.724-9.093-20.346-9.093-27.07,0c-33.015,44.647-53.582,107.554-53.582,177.26
	c0,78.799,26.282,148.908,67.117,193.773c40.835-44.865,67.117-114.974,67.117-193.773C323.117,114.374,302.55,51.468,269.536,6.82z
	"/>
<path style="fill:#F2C42C;" d="M256,302.215l-151.655,35.708l36.011,144.09C143.345,499.341,158.374,512,175.958,512h160.085
	c17.583,0,32.613-12.659,35.602-29.986l36.011-144.09L256,302.215z"/>
<path style="fill:#E0B629;" d="M181.563,482.014l-36.011-144.09l131.051-30.857L256,302.215l-151.655,35.708l36.011,144.09
	C143.345,499.341,158.374,512,175.958,512h41.207C199.581,512,184.552,499.34,181.563,482.014z"/>
<g>
	<path style="fill:#3A484A;" d="M181.396,427.148c-4.267,0-7.726-3.459-7.726-7.726V405.92c0-4.267,3.459-7.726,7.726-7.726
		c4.267,0,7.726,3.459,7.726,7.726v13.502C189.123,423.689,185.663,427.148,181.396,427.148z"/>
	<path style="fill:#3A484A;" d="M330.604,427.148c-4.268,0-7.726-3.459-7.726-7.726V405.92c0-4.267,3.458-7.726,7.726-7.726
		s7.726,3.459,7.726,7.726v13.502C338.33,423.689,334.871,427.148,330.604,427.148z"/>
	<path style="fill:#3A484A;" d="M256,434.355c-9.407,0-18.238-3.932-24.231-10.789c-2.808-3.213-2.48-8.094,0.732-10.902
		c3.213-2.808,8.093-2.481,10.902,0.732c3.059,3.499,7.649,5.505,12.596,5.505s9.538-2.007,12.597-5.505
		c2.808-3.213,7.689-3.541,10.901-0.732c3.213,2.808,3.542,7.689,0.732,10.902C274.238,430.423,265.407,434.355,256,434.355z"/>
</g>
<path style="fill:#FADC60;" d="M407.655,266.507h-303.31c-12.692,0-22.98,10.288-22.98,22.98v25.456
	c0,12.692,10.288,22.98,22.98,22.98h303.31c12.692,0,22.98-10.288,22.98-22.98v-25.456
	C430.635,276.796,420.347,266.507,407.655,266.507z"/>
<path style="fill:#F2C42C;" d="M122.572,314.943v-25.456c0-12.692,10.288-22.98,22.98-22.98h-41.207
	c-12.692,0-22.98,10.288-22.98,22.98v25.456c0,12.692,10.288,22.98,22.98,22.98h41.207
	C132.861,337.923,122.572,327.634,122.572,314.943z"/>
<g>
</g>
<g>
</g>
<g>
</g>
<g>
</g>
<g>
</g>
<g>
</g>
<g>
</g>
<g>
</g>
<g>
</g>
<g>
</g>
<g>
</g>
<g>
</g>
<g>
</g>
<g>
</g>
<g>
</g>
</svg>
