<?xml version="1.0" encoding="iso-8859-1"?>
<!-- Generator: Adobe Illustrator 19.0.0, SVG Export Plug-In . SVG Version: 6.00 Build 0)  -->
<svg version="1.1" id="Capa_1" xmlns="http://www.w3.org/2000/svg" xmlns:xlink="http://www.w3.org/1999/xlink" x="0px" y="0px"
	 viewBox="0 0 511.999 511.999" style="enable-background:new 0 0 511.999 511.999;" xml:space="preserve">
<path style="fill:#7CB777;" d="M232.912,292.194c-8.104,0-14.675-6.57-14.675-14.675c0-85.799,38.89-168.915,40.547-172.41
	c3.47-7.327,12.222-10.451,19.545-6.983c7.323,3.468,10.449,12.213,6.986,19.537l0,0c-0.377,0.798-37.726,80.796-37.726,159.856
	C247.588,285.623,241.018,292.194,232.912,292.194z"/>
<path style="fill:#FD6F71;" d="M343.252,165.722c38.094-5.819,49.383-55.277,17.586-77.049l0,0l0,0
	c19.202-33.412-12.428-73.074-49.276-61.789l0,0l0,0c-14.151-35.844-64.88-35.844-79.031,0l0,0l0,0
	c-36.848-11.285-68.476,28.377-49.275,61.789l0,0l0,0c-31.797,21.772-20.509,71.23,17.586,77.049l0,0l0,0
	c-2.803,38.434,42.903,60.445,71.204,34.291l0,0l0,0C300.349,226.166,346.054,204.156,343.252,165.722L343.252,165.722
	L343.252,165.722z"/>
<circle style="fill:#FADC60;" cx="272.05" cy="105.706" r="66.855"/>
<path style="fill:#E0B629;" d="M225.796,105.701c0-33.419,24.521-61.108,56.553-66.062c-3.358-0.519-6.798-0.792-10.302-0.792
	c-36.923,0-66.855,29.932-66.855,66.855s29.932,66.855,66.855,66.855c3.504,0,6.943-0.272,10.302-0.792
	C250.317,166.809,225.796,139.12,225.796,105.701z"/>
<g>
	<path style="fill:#3A484A;" d="M231.072,115.156c-4.267,0-7.726-3.459-7.726-7.726v-7.415c0-4.267,3.459-7.726,7.726-7.726
		c4.267,0,7.726,3.459,7.726,7.726v7.415C238.799,111.697,235.339,115.156,231.072,115.156z"/>
	<path style="fill:#3A484A;" d="M313.021,115.156c-4.267,0-7.726-3.459-7.726-7.726v-7.415c0-4.267,3.459-7.726,7.726-7.726
		c4.267,0,7.726,3.459,7.726,7.726v7.415C320.748,111.697,317.289,115.156,313.021,115.156z"/>
	<path style="fill:#3A484A;" d="M272.047,119.115c-6.171,0-11.977-2.594-15.93-7.115c-2.809-3.213-2.481-8.093,0.731-10.902
		c3.213-2.809,8.094-2.481,10.902,0.731c1.019,1.165,2.585,1.833,4.296,1.833s3.278-0.668,4.296-1.833
		c2.808-3.213,7.689-3.542,10.902-0.731c3.213,2.808,3.541,7.689,0.731,10.902C284.024,116.521,278.218,119.115,272.047,119.115z"/>
</g>
<path style="fill:#FADC60;" d="M322.198,350.912l-89.285-26.396l-89.285,26.396c-7.66,18.256-13.208,38.323-10.106,64.278
	l99.392,30.94l99.392-30.94C335.406,389.235,329.859,369.169,322.198,350.912z"/>
<path style="fill:#E0B629;" d="M164.426,415.19c-3.102-25.956,2.446-46.022,10.106-64.278c1.495-3.565,3.072-7.061,4.68-10.52
	l-35.586,10.52l0,0c-4.309,10.269-7.95,21.11-9.758,33.251c-1.406,9.443-1.705,19.671-0.348,31.027l32.514,10.122
	C165.358,421.843,164.815,418.464,164.426,415.19z"/>
<g>
	<path style="fill:#57D0E6;" d="M332.304,415.19c-2.417,20.34-10.136,44.31-26.308,73.866c-7.739,14.158-22.61,22.943-38.734,22.943
		h-68.701c-16.123,0-30.994-8.785-38.734-22.942c-16.172-29.556-23.892-53.526-26.308-73.866h198.784V415.19z"/>
	<path style="fill:#57D0E6;" d="M322.198,350.912H143.628c11.173-26.651,26.866-49.466,26.777-81.204
		c-0.029-8.58,6.809-15.605,15.39-15.605h94.236c8.58,0,15.419,7.025,15.39,15.605C295.332,301.446,311.025,324.261,322.198,350.912
		z"/>
</g>
<g>
	<path style="fill:#4DB8CC;" d="M229.467,511.999c-16.123,0-30.994-8.785-38.734-22.942c-16.172-29.556-23.892-53.526-26.308-73.866
		H133.52c0.302,2.542,0.687,5.142,1.161,7.802c3.317,18.618,10.996,40.203,25.147,66.064c7.666,14.022,22.757,22.942,38.734,22.942
		H229.467z"/>
	<path style="fill:#4DB8CC;" d="M174.533,350.912c11.173-26.651,26.866-49.466,26.777-81.204c-0.029-8.58,6.809-15.605,15.39-15.605
		h-30.905c-4.826,0-9.102,2.222-11.914,5.695c-3.338,4.122-3.356,8.563-3.537,13.59c-0.193,5.376-0.852,10.732-1.935,16.002
		c-2.557,12.445-7.284,23.716-12.483,34.881c-2.615,5.616-5.335,11.182-7.938,16.803c-1.498,3.237-2.966,6.508-4.362,9.839h30.905
		V350.912z"/>
</g>
<g>
</g>
<g>
</g>
<g>
</g>
<g>
</g>
<g>
</g>
<g>
</g>
<g>
</g>
<g>
</g>
<g>
</g>
<g>
</g>
<g>
</g>
<g>
</g>
<g>
</g>
<g>
</g>
<g>
</g>
</svg>
